<?xml version="1.0" encoding="utf-8"?>
<!-- Generator: Adobe Illustrator 26.5.0, SVG Export Plug-In . SVG Version: 6.00 Build 0)  -->
<svg version="1.2" baseProfile="tiny" xmlns="http://www.w3.org/2000/svg" xmlns:xlink="http://www.w3.org/1999/xlink" x="0px"
	 y="0px" viewBox="0 0 16 16" overflow="visible" xml:space="preserve">
<g id="Grid">
	<path fill="#909090" d="M1,0H0v1C0.55,1,1,0.55,1,0z"/>
	<path fill="#909090" d="M0,15v1h1C1,15.45,0.55,15,0,15z"/>
	<path fill="#909090" d="M16,15c-0.55,0-1,0.45-1,1h1V15z"/>
	<path fill="#909090" d="M16,1V0h-1C15,0.55,15.45,1,16,1z"/>
</g>
<g id="_x36_-0-2" display="none">
	<path display="inline" fill="#231F20" d="M15,1.4c0-0.01,0-0.02-0.01-0.03c-0.02-0.19-0.17-0.34-0.36-0.36
		C14.62,1.01,14.61,1,14.6,1c0,0,0,0-0.01,0c-1.48,0-2.96,0-4.44,0C7.78,1,5.4,1,3.03,1C2.49,1,1.95,1,1.4,1c0,0,0,0-0.01,0
		c-0.01,0-0.02,0-0.03,0.01C1.18,1.03,1.03,1.18,1.01,1.37C1.01,1.38,1,1.39,1,1.4c0,0,0,0,0,0.01c0,1.48,0,2.96,0,4.44
		c0,2.37,0,4.75,0,7.12c0,0.54,0,1.08,0,1.63c0,0,0,0,0,0.01c0,0.01,0,0.02,0.01,0.03c0.02,0.19,0.17,0.34,0.36,0.36
		C1.38,14.99,1.39,15,1.4,15c0,0,0,0,0.01,0c1.48,0,2.96,0,4.44,0c2.37,0,4.75,0,7.12,0c0.54,0,1.08,0,1.63,0c0,0,0,0,0.01,0
		c0.01,0,0.02,0,0.03-0.01c0.09-0.01,0.17-0.04,0.22-0.09c0.01-0.01,0.02-0.01,0.03-0.02c0.01-0.01,0.01-0.02,0.02-0.03
		c0.05-0.06,0.09-0.13,0.09-0.22c0-0.01,0.01-0.02,0.01-0.03c0,0,0,0,0-0.01c0-1.48,0-2.96,0-4.44c0-2.37,0-4.75,0-7.12
		C15,2.49,15,1.95,15,1.4C15,1.4,15,1.4,15,1.4z M14.19,5.85c0,2.37,0,4.75,0,7.12c0,0.22,0,0.43,0,0.65
		c-1.26-1.26-2.52-2.52-3.78-3.78C9.8,9.23,9.19,8.61,8.57,8c1.56-1.56,3.13-3.13,4.69-4.69c0.31-0.31,0.62-0.62,0.93-0.93
		C14.19,3.54,14.19,4.69,14.19,5.85z M5.85,1.81c2.37,0,4.75,0,7.12,0c0.22,0,0.43,0,0.65,0c-1.26,1.26-2.52,2.52-3.78,3.78
		C9.23,6.2,8.61,6.81,8,7.43C6.44,5.86,4.87,4.3,3.31,2.74C3,2.43,2.69,2.12,2.38,1.81C3.54,1.81,4.69,1.81,5.85,1.81z M1.81,3.03
		c0-0.22,0-0.43,0-0.65C3.07,3.64,4.33,4.9,5.58,6.16C6.2,6.77,6.81,7.39,7.43,8c-1.56,1.56-3.13,3.13-4.69,4.69
		C2.43,13,2.12,13.31,1.81,13.62c0-1.16,0-2.31,0-3.47C1.81,7.78,1.81,5.4,1.81,3.03z M10.15,14.19c-2.37,0-4.75,0-7.12,0
		c-0.22,0-0.43,0-0.65,0c1.26-1.26,2.52-2.52,3.78-3.78C6.77,9.8,7.39,9.19,8,8.57c1.56,1.56,3.13,3.13,4.69,4.69
		c0.31,0.31,0.62,0.62,0.93,0.93C12.46,14.19,11.31,14.19,10.15,14.19z"/>
</g>
<g id="_x35_-2-4" display="none">
	<path display="inline" fill="#231F20" d="M1.4,1c-0.01,0-0.02,0-0.03,0.01C1.18,1.03,1.03,1.18,1.01,1.37C1.01,1.38,1,1.39,1,1.4
		c0,0,0,0,0,0.01c0,1.48,0,2.96,0,4.44c0,2.37,0,4.75,0,7.12c0,0.54,0,1.08,0,1.63c0,0,0,0,0,0.01c0,0.01,0,0.02,0.01,0.03
		c0.01,0.17,0.11,0.28,0.23,0.32c0,0,0.01,0,0.01,0.01c0,0,0,0,0,0c0.12,0.06,0.27,0.05,0.4-0.06c0.01-0.01,0.02-0.01,0.02-0.01
		c0,0,0,0,0.01,0c1.49-1.49,2.98-2.98,4.47-4.47C6.77,9.8,7.39,9.19,8,8.57c1.56,1.56,3.13,3.13,4.69,4.69
		c0.54,0.54,1.08,1.08,1.62,1.62c0,0,0,0,0.01,0c0.01,0.01,0.01,0.01,0.02,0.01c0.13,0.11,0.28,0.12,0.4,0.06c0,0,0,0,0.01,0
		c0,0,0.01,0,0.01-0.01c0.13-0.05,0.22-0.16,0.24-0.32c0-0.01,0.01-0.02,0.01-0.03c0,0,0,0,0-0.01c0-1.48,0-2.96,0-4.44
		c0-2.37,0-4.75,0-7.12c0-0.54,0-1.08,0-1.63c0,0,0,0,0-0.01c0-0.01,0-0.02-0.01-0.03c-0.02-0.19-0.17-0.34-0.36-0.36
		C14.62,1.01,14.61,1,14.6,1c0,0,0,0-0.01,0c-1.48,0-2.96,0-4.44,0C7.78,1,5.4,1,3.03,1C2.49,1,1.95,1,1.4,1C1.4,1,1.4,1,1.4,1z
		 M12.97,1.81c0.22,0,0.43,0,0.65,0c-1.26,1.26-2.52,2.52-3.78,3.78C9.23,6.2,8.61,6.82,8,7.43C6.44,5.87,4.87,4.3,3.31,2.74
		C3,2.43,2.69,2.12,2.38,1.81c1.16,0,2.31,0,3.47,0C8.22,1.81,10.6,1.81,12.97,1.81z M2.74,12.69C2.43,13,2.12,13.31,1.81,13.62
		c0-1.16,0-2.31,0-3.47c0-2.37,0-4.75,0-7.12c0-0.22,0-0.43,0-0.65C3.07,3.64,4.33,4.9,5.58,6.16C6.2,6.77,6.81,7.39,7.43,8
		C5.86,9.57,4.3,11.13,2.74,12.69z M14.19,5.85c0,2.37,0,4.75,0,7.12c0,0.22,0,0.43,0,0.65c-1.26-1.26-2.52-2.52-3.78-3.78
		C9.8,9.23,9.19,8.62,8.57,8c1.56-1.56,3.13-3.13,4.69-4.69c0.31-0.31,0.62-0.62,0.93-0.93C14.19,3.54,14.19,4.69,14.19,5.85z"/>
</g>
<g id="_x35_-2-3" display="none">
	<path display="inline" fill="#231F20" d="M1,14.6c0,0.01,0,0.02,0.01,0.03c0.02,0.19,0.17,0.34,0.36,0.36
		C1.38,14.99,1.39,15,1.4,15c0,0,0,0,0.01,0c1.48,0,2.96,0,4.44,0c2.37,0,4.75,0,7.12,0c0.54,0,1.08,0,1.63,0c0,0,0,0,0.01,0
		c0.01,0,0.02,0,0.03-0.01c0.17-0.01,0.28-0.11,0.32-0.23c0,0,0-0.01,0.01-0.01c0,0,0,0,0,0c0.06-0.12,0.05-0.27-0.06-0.4
		c-0.01-0.01-0.01-0.02-0.01-0.02c0,0,0,0,0-0.01c-1.49-1.49-2.98-2.98-4.47-4.47C9.8,9.23,9.19,8.61,8.57,8
		c1.56-1.56,3.13-3.13,4.69-4.69c0.54-0.54,1.08-1.08,1.62-1.62c0,0,0,0,0-0.01c0.01-0.01,0.01-0.01,0.01-0.02
		c0.11-0.13,0.12-0.28,0.06-0.4c0,0,0,0,0-0.01c0,0,0-0.01-0.01-0.01c-0.05-0.13-0.16-0.22-0.32-0.24C14.62,1.01,14.61,1,14.6,1
		c0,0,0,0-0.01,0c-1.48,0-2.96,0-4.44,0C7.78,1,5.41,1,3.03,1C2.49,1,1.95,1,1.41,1c0,0,0,0-0.01,0c-0.01,0-0.02,0-0.03,0.01
		C1.18,1.03,1.03,1.18,1.01,1.37C1.01,1.38,1,1.39,1,1.4c0,0,0,0,0,0.01c0,1.48,0,2.96,0,4.44c0,2.37,0,4.75,0,7.12
		C1,13.51,1,14.05,1,14.6C1,14.6,1,14.6,1,14.6z M1.81,3.03c0-0.22,0-0.43,0-0.65C3.07,3.64,4.33,4.9,5.59,6.16
		C6.2,6.77,6.82,7.39,7.43,8c-1.56,1.56-3.13,3.13-4.69,4.69C2.43,13,2.12,13.31,1.81,13.62c0-1.16,0-2.31,0-3.47
		C1.81,7.78,1.81,5.4,1.81,3.03z M12.69,13.26c0.31,0.31,0.62,0.62,0.93,0.93c-1.16,0-2.31,0-3.47,0c-2.37,0-4.75,0-7.12,0
		c-0.22,0-0.43,0-0.65,0c1.26-1.26,2.52-2.52,3.78-3.78C6.77,9.8,7.39,9.19,8,8.57C9.57,10.14,11.13,11.7,12.69,13.26z M5.85,1.81
		c2.37,0,4.75,0,7.12,0c0.22,0,0.43,0,0.65,0c-1.26,1.26-2.52,2.52-3.78,3.78C9.23,6.2,8.62,6.81,8,7.43
		C6.44,5.86,4.87,4.3,3.31,2.74C3,2.43,2.69,2.12,2.38,1.81C3.54,1.81,4.69,1.81,5.85,1.81z"/>
</g>
<g id="_x35_-2-2" display="none">
	<path display="inline" fill="#231F20" d="M14.6,15c0.01,0,0.02,0,0.03-0.01c0.19-0.02,0.34-0.17,0.36-0.36
		c0-0.01,0.01-0.02,0.01-0.03c0,0,0,0,0-0.01c0-1.48,0-2.96,0-4.44c0-2.37,0-4.75,0-7.12c0-0.54,0-1.08,0-1.63c0,0,0,0,0-0.01
		c0-0.01,0-0.02-0.01-0.03c-0.01-0.17-0.11-0.28-0.23-0.32c0,0-0.01,0-0.01-0.01c0,0,0,0,0,0c-0.12-0.06-0.27-0.05-0.4,0.06
		c-0.01,0.01-0.02,0.01-0.02,0.01c0,0,0,0-0.01,0c-1.49,1.49-2.98,2.98-4.47,4.47C9.23,6.2,8.61,6.81,8,7.43
		C6.44,5.86,4.87,4.3,3.31,2.73C2.77,2.2,2.23,1.66,1.69,1.12c0,0,0,0-0.01,0C1.68,1.11,1.67,1.11,1.66,1.1
		c-0.13-0.11-0.28-0.12-0.4-0.06c0,0,0,0-0.01,0c0,0-0.01,0-0.01,0.01C1.12,1.09,1.02,1.2,1.01,1.37C1.01,1.38,1,1.39,1,1.4
		c0,0,0,0,0,0.01c0,1.48,0,2.96,0,4.44c0,2.37,0,4.75,0,7.12c0,0.54,0,1.08,0,1.63c0,0,0,0,0,0.01c0,0.01,0,0.02,0.01,0.03
		c0.02,0.19,0.17,0.34,0.36,0.36C1.38,14.99,1.39,15,1.4,15c0,0,0,0,0.01,0c1.48,0,2.96,0,4.44,0c2.37,0,4.75,0,7.12,0
		C13.51,15,14.05,15,14.6,15C14.6,15,14.6,15,14.6,15z M3.03,14.19c-0.22,0-0.43,0-0.65,0c1.26-1.26,2.52-2.52,3.78-3.78
		C6.77,9.8,7.39,9.18,8,8.57c1.56,1.56,3.13,3.13,4.69,4.69c0.31,0.31,0.62,0.62,0.93,0.93c-1.16,0-2.31,0-3.47,0
		C7.78,14.19,5.4,14.19,3.03,14.19z M13.26,3.31c0.31-0.31,0.62-0.62,0.93-0.93c0,1.16,0,2.31,0,3.47c0,2.37,0,4.75,0,7.12
		c0,0.22,0,0.43,0,0.65c-1.26-1.26-2.52-2.52-3.78-3.78C9.8,9.23,9.19,8.61,8.57,8C10.14,6.43,11.7,4.87,13.26,3.31z M1.81,10.15
		c0-2.37,0-4.75,0-7.12c0-0.22,0-0.43,0-0.65C3.07,3.64,4.33,4.9,5.58,6.15C6.2,6.77,6.81,7.38,7.43,8
		c-1.56,1.56-3.13,3.13-4.69,4.69C2.43,13,2.12,13.31,1.81,13.62C1.81,12.46,1.81,11.31,1.81,10.15z"/>
</g>
<g id="_x35_-2-1" display="none">
	<path display="inline" fill="#231F20" d="M15,1.4c0-0.01,0-0.02-0.01-0.03c-0.02-0.19-0.17-0.34-0.36-0.36
		C14.62,1.01,14.61,1,14.6,1c0,0,0,0-0.01,0c-1.48,0-2.96,0-4.44,0C7.78,1,5.4,1,3.03,1C2.49,1,1.94,1,1.4,1c0,0,0,0-0.01,0
		c-0.01,0-0.02,0-0.03,0.01C1.2,1.02,1.09,1.12,1.04,1.24c0,0,0,0.01-0.01,0.01c0,0,0,0,0,0C0.98,1.38,0.99,1.53,1.1,1.66
		C1.1,1.67,1.11,1.68,1.11,1.68c0,0,0,0,0,0.01c1.49,1.49,2.98,2.98,4.47,4.47C6.2,6.77,6.81,7.39,7.43,8
		c-1.56,1.56-3.13,3.13-4.69,4.69c-0.54,0.54-1.08,1.08-1.62,1.62c0,0,0,0,0,0.01c-0.01,0.01-0.01,0.01-0.01,0.02
		c-0.11,0.13-0.12,0.28-0.06,0.4c0,0,0,0,0,0.01c0,0,0,0.01,0.01,0.01c0.05,0.13,0.16,0.22,0.32,0.24C1.38,14.99,1.39,15,1.4,15
		c0,0,0,0,0.01,0c1.48,0,2.96,0,4.44,0c2.37,0,4.75,0,7.12,0c0.54,0,1.08,0,1.63,0c0,0,0,0,0.01,0c0.01,0,0.02,0,0.03-0.01
		c0.19-0.02,0.34-0.17,0.36-0.36c0-0.01,0.01-0.02,0.01-0.03c0,0,0,0,0-0.01c0-1.48,0-2.96,0-4.44c0-2.37,0-4.75,0-7.12
		C15,2.49,15,1.95,15,1.4C15,1.4,15,1.4,15,1.4z M14.19,12.97c0,0.22,0,0.43,0,0.65c-1.26-1.26-2.52-2.52-3.78-3.78
		C9.8,9.23,9.18,8.61,8.57,8c1.56-1.56,3.13-3.13,4.69-4.69c0.31-0.31,0.62-0.62,0.93-0.93c0,1.16,0,2.31,0,3.47
		C14.19,8.22,14.19,10.6,14.19,12.97z M3.31,2.74C3,2.43,2.69,2.12,2.38,1.81c1.16,0,2.31,0,3.47,0c2.37,0,4.75,0,7.12,0
		c0.22,0,0.43,0,0.65,0c-1.26,1.26-2.52,2.52-3.78,3.78C9.23,6.2,8.61,6.81,8,7.43C6.43,5.86,4.87,4.3,3.31,2.74z M10.15,14.19
		c-2.37,0-4.75,0-7.12,0c-0.22,0-0.43,0-0.65,0c1.26-1.26,2.52-2.52,3.78-3.78C6.77,9.8,7.38,9.19,8,8.57
		c1.56,1.56,3.13,3.13,4.69,4.69c0.31,0.31,0.62,0.62,0.93,0.93C12.46,14.19,11.31,14.19,10.15,14.19z"/>
</g>
<g id="_x35_-1-2" display="none">
	<path display="inline" fill="#231F20" d="M1,1.4c0,1.48,0,2.96,0,4.44c0,2.37,0,4.75,0,7.12c0,0.54,0,1.08,0,1.63c0,0,0,0,0,0.01
		c0,0.01,0,0.02,0.01,0.03c0.02,0.19,0.17,0.34,0.36,0.36C1.38,14.99,1.39,15,1.4,15c0,0,0,0,0.01,0c1.48,0,2.96,0,4.44,0
		c2.37,0,4.75,0,7.12,0c0.54,0,1.08,0,1.63,0c0.22,0,0.4-0.19,0.4-0.4c0-1.48,0-2.96,0-4.44c0-2.37,0-4.75,0-7.12
		c0-0.54,0-1.08,0-1.63c0,0,0,0,0-0.01c0-0.01,0-0.02-0.01-0.03c-0.01-0.09-0.04-0.17-0.09-0.22c-0.01-0.01-0.01-0.02-0.02-0.03
		c-0.01-0.01-0.02-0.01-0.03-0.02c-0.06-0.05-0.13-0.09-0.22-0.09C14.62,1.01,14.61,1,14.6,1c0,0,0,0-0.01,0c-1.48,0-2.96,0-4.44,0
		C7.78,1,5.4,1,3.03,1C2.49,1,1.95,1,1.4,1C1.19,1,1,1.19,1,1.4z M1.81,10.15c0-2.37,0-4.75,0-7.12c0-0.41,0-0.81,0-1.22
		c1.35,0,2.69,0,4.04,0c2.37,0,4.75,0,7.12,0c0.22,0,0.43,0,0.65,0c-1.26,1.26-2.52,2.52-3.78,3.78c-2.37,2.37-4.74,4.74-7.11,7.11
		C2.43,13,2.12,13.31,1.81,13.62C1.81,12.46,1.81,11.31,1.81,10.15z M14.19,5.85c0,2.37,0,4.75,0,7.12c0,0.41,0,0.81,0,1.22
		c-1.35,0-2.69,0-4.04,0c-2.37,0-4.75,0-7.12,0c-0.22,0-0.43,0-0.65,0c1.26-1.26,2.52-2.52,3.78-3.78c2.37-2.37,4.74-4.74,7.11-7.11
		c0.31-0.31,0.62-0.62,0.93-0.93C14.19,3.54,14.19,4.69,14.19,5.85z"/>
</g>
<g id="_x35_-1-1" display="none">
	<path display="inline" fill="#231F20" d="M14.6,1c-1.48,0-2.96,0-4.44,0C7.78,1,5.4,1,3.03,1C2.49,1,1.95,1,1.4,1c0,0,0,0-0.01,0
		c-0.01,0-0.02,0-0.03,0.01C1.18,1.03,1.03,1.18,1.01,1.37C1.01,1.38,1,1.39,1,1.4c0,0,0,0,0,0.01c0,1.48,0,2.96,0,4.44
		c0,2.37,0,4.75,0,7.12c0,0.54,0,1.08,0,1.63C1,14.81,1.19,15,1.4,15c1.48,0,2.96,0,4.44,0c2.37,0,4.75,0,7.12,0
		c0.54,0,1.08,0,1.63,0c0,0,0,0,0.01,0c0.01,0,0.02,0,0.03-0.01c0.09-0.01,0.17-0.04,0.22-0.09c0.01-0.01,0.02-0.01,0.03-0.02
		c0.01-0.01,0.01-0.02,0.02-0.03c0.05-0.06,0.09-0.13,0.09-0.22c0-0.01,0.01-0.02,0.01-0.03c0,0,0,0,0-0.01c0-1.48,0-2.96,0-4.44
		c0-2.37,0-4.75,0-7.12c0-0.54,0-1.08,0-1.63C15,1.19,14.81,1,14.6,1z M5.85,1.81c2.37,0,4.75,0,7.12,0c0.41,0,0.81,0,1.22,0
		c0,1.35,0,2.69,0,4.04c0,2.37,0,4.75,0,7.12c0,0.22,0,0.43,0,0.65c-1.26-1.26-2.52-2.52-3.78-3.78C8.05,7.47,5.68,5.11,3.31,2.74
		C3,2.43,2.69,2.12,2.38,1.81C3.54,1.81,4.69,1.81,5.85,1.81z M10.15,14.19c-2.37,0-4.75,0-7.12,0c-0.41,0-0.81,0-1.22,0
		c0-1.35,0-2.69,0-4.04c0-2.37,0-4.75,0-7.12c0-0.22,0-0.43,0-0.65C3.07,3.64,4.33,4.9,5.58,6.16c2.37,2.37,4.74,4.74,7.11,7.11
		c0.31,0.31,0.62,0.62,0.93,0.93C12.46,14.19,11.31,14.19,10.15,14.19z"/>
</g>
<g id="_x34_-3-1" display="none">
	<path display="inline" fill="#231F20" d="M14.6,1c-1.48,0-2.96,0-4.44,0C7.78,1,5.4,1,3.03,1C2.49,1,1.95,1,1.4,1
		C1.19,1,1,1.19,1,1.4c0,1.48,0,2.96,0,4.44c0,2.37,0,4.75,0,7.12c0,0.54,0,1.08,0,1.63C1,14.81,1.19,15,1.4,15
		c1.48,0,2.96,0,4.44,0c2.37,0,4.75,0,7.12,0c0.54,0,1.08,0,1.63,0c0.11,0,0.19-0.04,0.26-0.1c0.01-0.01,0.02-0.01,0.03-0.02
		c0.01-0.01,0.01-0.02,0.02-0.02c0.06-0.06,0.1-0.15,0.1-0.26c0-1.48,0-2.96,0-4.44c0-2.37,0-4.75,0-7.12c0-0.54,0-1.08,0-1.63
		C15,1.19,14.81,1,14.6,1z M10.15,14.19c-2.37,0-4.75,0-7.12,0c-0.41,0-0.81,0-1.22,0c0-1.35,0-2.69,0-4.04c0-2.37,0-4.75,0-7.12
		c0-0.41,0-0.81,0-1.22c1.35,0,2.69,0,4.04,0c2.37,0,4.75,0,7.12,0c0.41,0,0.82,0,1.22,0c0,1.35,0,2.69,0,4.04c0,2.37,0,4.75,0,7.12
		c0,0.41,0,0.81,0,1.22C12.85,14.19,11.5,14.19,10.15,14.19z"/>
</g>
<g id="_x34_-2-2" display="none">
	<path display="inline" fill="#231F20" d="M9.84,5.58C9.23,6.2,8.61,6.81,8,7.43C6.44,5.86,4.87,4.3,3.31,2.74
		C2.77,2.2,2.23,1.66,1.69,1.12C1.44,0.87,1,1.05,1,1.4c0,1.48,0,2.96,0,4.44c0,2.37,0,4.75,0,7.12c0,0.54,0,1.08,0,1.63
		c0,0,0,0,0,0.01c0,0.01,0,0.02,0.01,0.03c0.01,0.17,0.11,0.28,0.23,0.32c0,0,0.01,0.01,0.01,0.01c0,0,0,0,0,0
		c0.12,0.06,0.27,0.05,0.4-0.06c0.01-0.01,0.02-0.01,0.02-0.01c0,0,0,0,0.01,0c1.49-1.49,2.98-2.98,4.47-4.47
		C6.77,9.8,7.39,9.19,8,8.57c1.56,1.56,3.13,3.13,4.69,4.69c0.54,0.54,1.08,1.08,1.62,1.62C14.56,15.13,15,14.95,15,14.6
		c0-1.48,0-2.96,0-4.44c0-2.37,0-4.75,0-7.12c0-0.54,0-1.08,0-1.63c0-0.35-0.44-0.53-0.69-0.29C12.82,2.61,11.33,4.09,9.84,5.58z
		 M2.74,12.69C2.43,13,2.12,13.31,1.81,13.62c0-1.16,0-2.31,0-3.47c0-2.37,0-4.75,0-7.12c0-0.22,0-0.43,0-0.65
		C3.07,3.64,4.33,4.9,5.58,6.15C6.2,6.77,6.81,7.38,7.43,8C5.86,9.56,4.3,11.13,2.74,12.69z M14.19,5.85c0,2.37,0,4.75,0,7.12
		c0,0.22,0,0.43,0,0.65c-1.26-1.26-2.52-2.52-3.78-3.78C9.8,9.23,9.19,8.61,8.57,8c1.56-1.56,3.13-3.13,4.69-4.69
		c0.31-0.31,0.62-0.62,0.93-0.93C14.19,3.53,14.19,4.69,14.19,5.85z"/>
</g>
<g id="_x34_-2-1" display="none">
	<path display="inline" fill="#231F20" d="M10.42,9.84C9.8,9.23,9.19,8.61,8.57,8c1.56-1.56,3.13-3.13,4.69-4.69
		c0.54-0.54,1.08-1.08,1.62-1.62C15.13,1.44,14.95,1,14.6,1c-1.48,0-2.96,0-4.44,0C7.78,1,5.4,1,3.03,1C2.49,1,1.95,1,1.4,1
		c0,0,0,0-0.01,0c-0.01,0-0.02,0-0.03,0.01C1.2,1.02,1.1,1.12,1.05,1.24c0,0-0.01,0.01-0.01,0.01c0,0,0,0,0,0
		C0.98,1.38,0.99,1.53,1.1,1.66c0.01,0.01,0.01,0.02,0.01,0.02c0,0,0,0,0,0.01C2.61,3.18,4.1,4.67,5.59,6.16
		C6.2,6.77,6.81,7.39,7.43,8c-1.56,1.56-3.13,3.13-4.69,4.69c-0.54,0.54-1.08,1.08-1.62,1.62C0.87,14.56,1.05,15,1.4,15
		c1.48,0,2.96,0,4.44,0c2.37,0,4.75,0,7.12,0c0.54,0,1.08,0,1.63,0c0.35,0,0.53-0.44,0.29-0.69C13.39,12.82,11.91,11.33,10.42,9.84z
		 M3.31,2.74C3,2.43,2.69,2.12,2.38,1.81c1.16,0,2.31,0,3.47,0c2.37,0,4.75,0,7.12,0c0.22,0,0.43,0,0.65,0
		c-1.26,1.26-2.52,2.52-3.78,3.78C9.23,6.2,8.62,6.81,8,7.43C6.44,5.86,4.87,4.3,3.31,2.74z M10.15,14.19c-2.37,0-4.75,0-7.12,0
		c-0.22,0-0.43,0-0.65,0c1.26-1.26,2.52-2.52,3.78-3.78C6.77,9.8,7.39,9.19,8,8.57c1.56,1.56,3.13,3.13,4.69,4.69
		c0.31,0.31,0.62,0.62,0.93,0.93C12.47,14.19,11.31,14.19,10.15,14.19z"/>
</g>
<g id="_x34_-1-4" display="none">
	<path display="inline" fill="#231F20" d="M1.69,14.88c1.49-1.49,2.98-2.98,4.47-4.47C6.77,9.8,7.39,9.19,8,8.57
		c1.56,1.56,3.13,3.13,4.69,4.69c0.54,0.54,1.08,1.08,1.62,1.62C14.56,15.13,15,14.95,15,14.6c0-1.48,0-2.96,0-4.44
		c0-2.37,0-4.75,0-7.12c0-0.54,0-1.08,0-1.63c0,0,0,0,0-0.01c0-0.01,0-0.02-0.01-0.03c-0.01-0.09-0.04-0.17-0.09-0.22
		c-0.01-0.01-0.01-0.02-0.02-0.03c-0.01-0.01-0.02-0.01-0.03-0.02c-0.06-0.05-0.13-0.09-0.22-0.09C14.62,1.01,14.61,1,14.6,1
		c0,0,0,0-0.01,0c-1.48,0-2.96,0-4.44,0C7.78,1,5.4,1,3.03,1C2.49,1,1.95,1,1.4,1C1.05,1,0.87,1.44,1.12,1.69
		C2.61,3.18,4.1,4.67,5.58,6.16C6.2,6.77,6.81,7.39,7.43,8c-1.56,1.56-3.13,3.13-4.69,4.69c-0.54,0.54-1.08,1.08-1.62,1.62
		C0.75,14.68,1.32,15.25,1.69,14.88z M14.19,5.85c0,2.37,0,4.75,0,7.12c0,0.22,0,0.43,0,0.65c-1.26-1.26-2.52-2.52-3.78-3.78
		C9.8,9.23,9.19,8.61,8.57,8c1.56-1.56,3.13-3.13,4.69-4.69c0.31-0.31,0.62-0.62,0.93-0.93C14.19,3.54,14.19,4.69,14.19,5.85z
		 M3.31,2.74C3,2.43,2.69,2.12,2.38,1.81c1.16,0,2.31,0,3.47,0c2.37,0,4.75,0,7.12,0c0.22,0,0.43,0,0.65,0
		c-1.26,1.26-2.52,2.52-3.78,3.78C9.23,6.2,8.62,6.81,8,7.43C6.44,5.86,4.87,4.3,3.31,2.74z"/>
</g>
<g id="_x34_-1-3" display="none">
	<path display="inline" fill="#231F20" d="M1.12,1.69C2.61,3.18,4.1,4.67,5.58,6.16C6.2,6.77,6.81,7.39,7.43,8
		c-1.56,1.56-3.13,3.13-4.69,4.69c-0.54,0.54-1.08,1.08-1.62,1.62C0.87,14.56,1.05,15,1.4,15c1.48,0,2.96,0,4.44,0
		c2.37,0,4.75,0,7.12,0c0.54,0,1.08,0,1.63,0c0,0,0,0,0.01,0c0.01,0,0.02,0,0.03-0.01c0.09-0.01,0.17-0.04,0.22-0.09
		c0.01-0.01,0.02-0.01,0.03-0.02c0.01-0.01,0.01-0.02,0.02-0.03c0.05-0.06,0.09-0.13,0.09-0.22c0-0.01,0.01-0.02,0.01-0.03
		c0,0,0,0,0-0.01c0-1.48,0-2.96,0-4.44c0-2.37,0-4.75,0-7.12c0-0.54,0-1.08,0-1.63c0-0.35-0.44-0.53-0.69-0.29
		c-1.49,1.49-2.98,2.98-4.47,4.47C9.23,6.2,8.62,6.81,8,7.43C6.44,5.86,4.87,4.3,3.31,2.74C2.77,2.2,2.23,1.66,1.69,1.12
		C1.32,0.75,0.75,1.32,1.12,1.69z M10.15,14.19c-2.37,0-4.75,0-7.12,0c-0.22,0-0.43,0-0.65,0c1.26-1.26,2.52-2.52,3.78-3.78
		C6.77,9.8,7.39,9.19,8,8.57c1.56,1.56,3.13,3.13,4.69,4.69c0.31,0.31,0.62,0.62,0.93,0.93C12.46,14.19,11.31,14.19,10.15,14.19z
		 M13.26,3.31c0.31-0.31,0.62-0.62,0.93-0.93c0,1.16,0,2.31,0,3.47c0,2.37,0,4.75,0,7.12c0,0.22,0,0.43,0,0.65
		c-1.26-1.26-2.52-2.52-3.78-3.78C9.8,9.23,9.19,8.61,8.57,8C10.14,6.44,11.7,4.87,13.26,3.31z"/>
</g>
<g id="_x34_-1-2" display="none">
	<path display="inline" fill="#231F20" d="M14.31,1.12c-1.49,1.49-2.98,2.98-4.47,4.47C9.23,6.2,8.61,6.81,8,7.43
		C6.44,5.86,4.87,4.3,3.31,2.74C2.77,2.2,2.23,1.66,1.69,1.12C1.44,0.87,1,1.05,1,1.4c0,1.48,0,2.96,0,4.44c0,2.37,0,4.75,0,7.12
		c0,0.54,0,1.08,0,1.63c0,0,0,0,0,0.01c0,0.01,0,0.02,0.01,0.03c0.01,0.09,0.04,0.17,0.09,0.22c0.01,0.01,0.01,0.02,0.02,0.03
		c0.01,0.01,0.02,0.01,0.03,0.02c0.06,0.05,0.13,0.09,0.22,0.09C1.38,14.99,1.39,15,1.4,15c0,0,0,0,0.01,0c1.48,0,2.96,0,4.44,0
		c2.37,0,4.75,0,7.12,0c0.54,0,1.08,0,1.63,0c0.35,0,0.53-0.44,0.29-0.69c-1.49-1.49-2.98-2.98-4.47-4.47C9.8,9.23,9.19,8.62,8.57,8
		c1.56-1.56,3.13-3.13,4.69-4.69c0.54-0.54,1.08-1.08,1.62-1.62C15.25,1.32,14.68,0.75,14.31,1.12z M1.81,10.15
		c0-2.37,0-4.75,0-7.12c0-0.22,0-0.43,0-0.65C3.07,3.64,4.33,4.9,5.58,6.16C6.2,6.77,6.81,7.39,7.43,8
		c-1.56,1.56-3.13,3.13-4.69,4.69C2.43,13,2.12,13.31,1.81,13.62C1.81,12.46,1.81,11.31,1.81,10.15z M12.69,13.26
		c0.31,0.31,0.62,0.62,0.93,0.93c-1.16,0-2.31,0-3.47,0c-2.37,0-4.75,0-7.12,0c-0.22,0-0.43,0-0.65,0c1.26-1.26,2.52-2.52,3.78-3.78
		C6.77,9.8,7.39,9.19,8,8.57C9.56,10.14,11.13,11.7,12.69,13.26z"/>
</g>
<g id="_x34_-1-1" display="none">
	<path display="inline" fill="#231F20" d="M14.88,14.31c-1.49-1.49-2.98-2.98-4.47-4.47C9.8,9.23,9.19,8.61,8.57,8
		c1.56-1.56,3.13-3.13,4.69-4.69c0.54-0.54,1.08-1.08,1.62-1.62C15.13,1.44,14.95,1,14.6,1c-1.48,0-2.96,0-4.44,0
		C7.78,1,5.4,1,3.03,1C2.49,1,1.95,1,1.4,1c0,0,0,0-0.01,0c-0.01,0-0.02,0-0.03,0.01C1.28,1.01,1.2,1.05,1.15,1.1
		C1.14,1.11,1.13,1.11,1.12,1.12C1.11,1.13,1.11,1.14,1.1,1.15C1.05,1.2,1.01,1.28,1.01,1.37C1.01,1.38,1,1.39,1,1.4c0,0,0,0,0,0.01
		c0,1.48,0,2.96,0,4.44c0,2.37,0,4.75,0,7.12c0,0.54,0,1.08,0,1.63c0,0.35,0.44,0.53,0.69,0.29c1.49-1.49,2.98-2.98,4.47-4.47
		C6.77,9.8,7.38,9.19,8,8.57c1.56,1.56,3.13,3.13,4.69,4.69c0.54,0.54,1.08,1.08,1.62,1.62C14.68,15.25,15.25,14.68,14.88,14.31z
		 M5.85,1.81c2.37,0,4.75,0,7.12,0c0.22,0,0.43,0,0.65,0c-1.26,1.26-2.52,2.52-3.78,3.78C9.23,6.2,8.61,6.81,8,7.43
		C6.44,5.86,4.87,4.3,3.31,2.74C3,2.43,2.69,2.12,2.38,1.81C3.54,1.81,4.69,1.81,5.85,1.81z M2.74,12.69
		C2.43,13,2.12,13.31,1.81,13.62c0-1.16,0-2.31,0-3.47c0-2.37,0-4.75,0-7.12c0-0.22,0-0.43,0-0.65C3.07,3.64,4.33,4.9,5.58,6.16
		C6.2,6.77,6.81,7.39,7.43,8C5.86,9.56,4.3,11.13,2.74,12.69z"/>
</g>
<g id="_x33_-2-4" display="none">
	<path display="inline" fill="#231F20" d="M14.88,14.31c-1.49-1.49-2.98-2.98-4.47-4.47C9.8,9.23,9.19,8.61,8.57,8
		c1.56-1.56,3.13-3.13,4.69-4.69c0.54-0.54,1.08-1.08,1.62-1.62c0.37-0.37-0.2-0.94-0.57-0.57c-1.49,1.49-2.98,2.98-4.47,4.47
		C9.23,6.2,8.61,6.81,8,7.43C6.44,5.87,4.87,4.3,3.31,2.74C2.77,2.2,2.23,1.66,1.69,1.12c-0.37-0.37-0.94,0.2-0.57,0.57
		C2.61,3.18,4.1,4.67,5.58,6.16C6.2,6.77,6.81,7.39,7.43,8c-1.56,1.56-3.13,3.13-4.69,4.69c-0.54,0.54-1.08,1.08-1.62,1.62
		C0.87,14.56,1.05,15,1.4,15c1.48,0,2.96,0,4.44,0c2.37,0,4.75,0,7.12,0c0.54,0,1.08,0,1.63,0C14.95,15,15.13,14.56,14.88,14.31z
		 M6.16,10.42C6.77,9.8,7.39,9.19,8,8.57c1.56,1.56,3.13,3.13,4.69,4.69c0.31,0.31,0.62,0.62,0.93,0.93c-1.16,0-2.31,0-3.47,0
		c-2.37,0-4.75,0-7.12,0c-0.22,0-0.43,0-0.65,0C3.64,12.93,4.9,11.67,6.16,10.42z"/>
</g>
<g id="_x33_-2-3" display="none">
	<path display="inline" fill="#231F20" d="M1.69,14.88c1.49-1.49,2.98-2.98,4.47-4.47C6.77,9.8,7.39,9.19,8,8.57
		c1.56,1.56,3.13,3.13,4.69,4.69c0.54,0.54,1.08,1.08,1.62,1.62c0.37,0.37,0.94-0.2,0.57-0.57c-1.49-1.49-2.98-2.98-4.47-4.47
		C9.8,9.23,9.19,8.61,8.57,8c1.56-1.56,3.13-3.13,4.69-4.69c0.54-0.54,1.08-1.08,1.62-1.62c0.37-0.37-0.2-0.94-0.57-0.57
		c-1.49,1.49-2.98,2.98-4.47,4.47C9.23,6.2,8.61,6.81,8,7.43C6.44,5.86,4.87,4.3,3.31,2.74C2.77,2.2,2.23,1.66,1.69,1.12
		C1.44,0.87,1,1.05,1,1.4c0,1.48,0,2.96,0,4.44c0,2.37,0,4.75,0,7.12c0,0.54,0,1.08,0,1.63C1,14.95,1.44,15.13,1.69,14.88z
		 M5.58,6.16C6.2,6.77,6.81,7.39,7.43,8c-1.56,1.56-3.13,3.13-4.69,4.69C2.43,13,2.12,13.31,1.81,13.62c0-1.16,0-2.31,0-3.47
		c0-2.37,0-4.75,0-7.12c0-0.22,0-0.43,0-0.65C3.07,3.64,4.33,4.9,5.58,6.16z"/>
</g>
<g id="_x33_-2-2" display="none">
	<path display="inline" fill="#231F20" d="M1.12,1.69C2.61,3.18,4.1,4.67,5.58,6.16C6.2,6.77,6.81,7.39,7.43,8
		c-1.56,1.56-3.13,3.13-4.69,4.69c-0.54,0.54-1.08,1.08-1.62,1.62c-0.37,0.37,0.2,0.94,0.57,0.57c1.49-1.49,2.98-2.98,4.47-4.47
		C6.77,9.8,7.39,9.19,8,8.57c1.56,1.56,3.13,3.13,4.69,4.69c0.54,0.54,1.08,1.08,1.62,1.62c0.37,0.37,0.94-0.2,0.57-0.57
		c-1.49-1.49-2.98-2.98-4.47-4.47C9.8,9.23,9.19,8.61,8.57,8c1.56-1.56,3.13-3.13,4.69-4.69c0.54-0.54,1.08-1.08,1.62-1.62
		C15.13,1.44,14.95,1,14.6,1c-1.48,0-2.96,0-4.44,0C7.78,1,5.4,1,3.03,1C2.49,1,1.95,1,1.4,1C1.05,1,0.87,1.44,1.12,1.69z
		 M9.84,5.58C9.23,6.2,8.61,6.81,8,7.43C6.44,5.86,4.87,4.3,3.31,2.74C3,2.43,2.69,2.12,2.38,1.81c1.16,0,2.31,0,3.47,0
		c2.37,0,4.75,0,7.12,0c0.22,0,0.43,0,0.65,0C12.36,3.07,11.1,4.33,9.84,5.58z"/>
</g>
<g id="_x33_-2-1" display="none">
	<path display="inline" fill="#231F20" d="M14.31,1.12c-1.49,1.49-2.98,2.98-4.47,4.47C9.23,6.2,8.61,6.81,8,7.43
		C6.44,5.86,4.87,4.3,3.31,2.74C2.77,2.2,2.23,1.66,1.69,1.12c-0.37-0.37-0.94,0.2-0.57,0.57C2.61,3.18,4.1,4.67,5.59,6.16
		C6.2,6.77,6.81,7.39,7.43,8c-1.56,1.56-3.13,3.13-4.69,4.69c-0.54,0.54-1.08,1.08-1.62,1.62c-0.37,0.37,0.2,0.94,0.57,0.57
		c1.49-1.49,2.98-2.98,4.47-4.47C6.77,9.8,7.39,9.19,8,8.57c1.56,1.56,3.13,3.13,4.69,4.69c0.54,0.54,1.08,1.08,1.62,1.62
		C14.56,15.13,15,14.95,15,14.6c0-1.48,0-2.96,0-4.44c0-2.37,0-4.75,0-7.12c0-0.54,0-1.08,0-1.63C15,1.05,14.56,0.87,14.31,1.12z
		 M10.42,9.84C9.8,9.23,9.19,8.61,8.57,8c1.56-1.56,3.13-3.13,4.69-4.69c0.31-0.31,0.62-0.62,0.93-0.93c0,1.16,0,2.31,0,3.47
		c0,2.37,0,4.75,0,7.12c0,0.22,0,0.43,0,0.65C12.93,12.36,11.67,11.1,10.42,9.84z"/>
</g>
<g id="_x33_-1-4" display="none">
	<path display="inline" fill="#231F20" d="M15,14.6c0-1.48,0-2.97,0-4.45c0-2.37,0-4.74,0-7.1c0-0.55,0-1.09,0-1.64c0,0,0,0,0-0.01
		c0-0.01,0-0.02-0.01-0.03c-0.01-0.17-0.11-0.28-0.23-0.32c0,0-0.01,0-0.01-0.01c0,0,0,0,0,0c-0.12-0.06-0.27-0.05-0.4,0.06
		c-0.01,0.01-0.02,0.01-0.02,0.01c0,0,0,0-0.01,0c-1.49,1.49-2.98,2.98-4.47,4.47c-2.37,2.37-4.74,4.74-7.11,7.11
		c-0.54,0.54-1.08,1.08-1.62,1.62C0.87,14.56,1.05,15,1.4,15c1.48,0,2.96,0,4.45,0c2.37,0,4.75,0,7.12,0c0.54,0,1.08,0,1.63,0
		C14.81,15,15,14.82,15,14.6z M6.15,10.41c2.37-2.37,4.74-4.74,7.11-7.11c0.31-0.31,0.62-0.62,0.93-0.93c0,1.16,0,2.32,0,3.48
		c0,2.37,0,4.74,0,7.1c0,0.41,0,0.82,0,1.24c-1.35,0-2.69,0-4.04,0c-2.37,0-4.75,0-7.12,0c-0.22,0-0.43,0-0.65,0
		C3.63,12.93,4.89,11.67,6.15,10.41z"/>
</g>
<g id="_x33_-1-3" display="none">
	<path display="inline" fill="#231F20" d="M14.6,1c-1.48,0-2.97,0-4.45,0c-2.37,0-4.74,0-7.1,0C2.49,1,1.95,1,1.4,1c0,0,0,0-0.01,0
		c-0.01,0-0.02,0-0.03,0.01C1.2,1.02,1.09,1.12,1.04,1.24c0,0,0,0.01-0.01,0.01c0,0,0,0,0,0C0.98,1.38,0.99,1.53,1.1,1.66
		C1.1,1.67,1.11,1.68,1.11,1.68c0,0,0,0,0,0.01C2.6,3.18,4.09,4.67,5.58,6.16c2.37,2.37,4.74,4.74,7.11,7.11
		c0.54,0.54,1.08,1.08,1.62,1.62C14.56,15.13,15,14.95,15,14.6c0-1.48,0-2.96,0-4.45c0-2.37,0-4.75,0-7.12c0-0.54,0-1.08,0-1.63
		C15,1.19,14.82,1,14.6,1z M10.41,9.85C8.04,7.48,5.67,5.11,3.3,2.74C2.99,2.43,2.69,2.12,2.38,1.81c1.16,0,2.32,0,3.48,0
		c2.37,0,4.74,0,7.1,0c0.41,0,0.82,0,1.24,0c0,1.35,0,2.69,0,4.04c0,2.37,0,4.75,0,7.12c0,0.22,0,0.43,0,0.65
		C12.93,12.37,11.67,11.11,10.41,9.85z"/>
</g>
<g id="_x33_-1-2" display="none">
	<path display="inline" fill="#231F20" d="M1.4,15c1.48,0,2.97,0,4.45,0c2.37,0,4.74,0,7.1,0c0.55,0,1.09,0,1.64,0c0,0,0,0,0.01,0
		c0.01,0,0.02,0,0.03-0.01c0.17-0.01,0.28-0.11,0.32-0.23c0,0,0-0.01,0.01-0.01c0,0,0,0,0,0c0.06-0.12,0.05-0.27-0.06-0.4
		c-0.01-0.01-0.01-0.02-0.01-0.02c0,0,0,0,0-0.01c-1.49-1.49-2.98-2.98-4.47-4.47C8.05,7.47,5.68,5.1,3.31,2.73
		C2.77,2.19,2.23,1.65,1.69,1.11C1.44,0.87,1,1.05,1,1.4c0,1.48,0,2.96,0,4.45c0,2.37,0,4.75,0,7.12c0,0.54,0,1.08,0,1.63
		C1,14.81,1.18,15,1.4,15z M5.59,6.15c2.37,2.37,4.74,4.74,7.11,7.11c0.31,0.31,0.62,0.62,0.93,0.93c-1.16,0-2.32,0-3.48,0
		c-2.37,0-4.74,0-7.1,0c-0.41,0-0.82,0-1.24,0c0-1.35,0-2.69,0-4.04c0-2.37,0-4.75,0-7.12c0-0.22,0-0.43,0-0.65
		C3.07,3.63,4.33,4.89,5.59,6.15z"/>
</g>
<g id="_x33_-1-1" display="none">
	<path display="inline" fill="#231F20" d="M14.6,1c-1.48,0-2.97,0-4.45,0c-2.37,0-4.74,0-7.1,0C2.49,1,1.95,1,1.4,1c0,0,0,0-0.01,0
		c-0.01,0-0.02,0-0.03,0.01C1.2,1.02,1.09,1.12,1.04,1.24c0,0,0,0.01-0.01,0.01c0,0,0,0,0,0C0.98,1.38,0.99,1.53,1.1,1.66
		C1.1,1.67,1.11,1.68,1.11,1.68c0,0,0,0,0,0.01C2.6,3.18,4.09,4.67,5.58,6.16c2.37,2.37,4.74,4.74,7.11,7.11
		c0.54,0.54,1.08,1.08,1.62,1.62C14.56,15.13,15,14.95,15,14.6c0-1.48,0-2.96,0-4.45c0-2.37,0-4.75,0-7.12c0-0.54,0-1.08,0-1.63
		C15,1.19,14.82,1,14.6,1z M10.41,9.85C8.04,7.48,5.67,5.11,3.3,2.74C2.99,2.43,2.69,2.12,2.38,1.81c1.16,0,2.32,0,3.48,0
		c2.37,0,4.74,0,7.1,0c0.41,0,0.82,0,1.24,0c0,1.35,0,2.69,0,4.04c0,2.37,0,4.75,0,7.12c0,0.22,0,0.43,0,0.65
		C12.93,12.37,11.67,11.11,10.41,9.85z"/>
</g>
<g id="_x32_-0-1">
	<g>
		<g>
			<line fill="#231F20" x1="2.35" y1="2.35" x2="13.65" y2="13.65"/>
			<path fill="#231F20" d="M2.1,2.59c1.28,1.28,2.55,2.55,3.83,3.83c2.03,2.03,4.06,4.06,6.09,6.09c0.46,0.46,0.92,0.92,1.39,1.39
				c0.32,0.32,0.81-0.17,0.49-0.49c-1.28-1.28-2.55-2.55-3.83-3.83C8.04,7.55,6.01,5.52,3.98,3.49C3.52,3.03,3.05,2.56,2.59,2.1
				C2.28,1.79,1.79,2.28,2.1,2.59L2.1,2.59z"/>
		</g>
		<path fill="#231F20" d="M13.41,2.1c-1.28,1.28-2.55,2.55-3.83,3.83c-2.03,2.03-4.06,4.06-6.09,6.09
			c-0.46,0.46-0.92,0.92-1.39,1.39c-0.32,0.32,0.17,0.81,0.49,0.49c1.28-1.28,2.55-2.55,3.83-3.83c2.03-2.03,4.06-4.06,6.09-6.09
			c0.46-0.46,0.92-0.92,1.39-1.39C14.21,2.28,13.72,1.79,13.41,2.1L13.41,2.1z"/>
	</g>
</g>
</svg>
