<?xml version="1.0" encoding="utf-8"?>
<!-- Generator: Adobe Illustrator 26.5.0, SVG Export Plug-In . SVG Version: 6.00 Build 0)  -->
<svg version="1.2" baseProfile="tiny" xmlns="http://www.w3.org/2000/svg" xmlns:xlink="http://www.w3.org/1999/xlink" x="0px"
	 y="0px" viewBox="0 0 16 16" overflow="visible" xml:space="preserve">
<g id="Grid">
	<path fill="#909090" d="M1,0H0v1C0.55,1,1,0.55,1,0z"/>
	<path fill="#909090" d="M0,15v1h1C1,15.45,0.55,15,0,15z"/>
	<path fill="#909090" d="M16,15c-0.55,0-1,0.45-1,1h1V15z"/>
	<path fill="#909090" d="M16,1V0h-1C15,0.55,15.45,1,16,1z"/>
</g>
<g id="_x36_-0-2">
	<path fill="#231F20" d="M14,2.34c0-0.01,0-0.02-0.01-0.03c-0.02-0.16-0.15-0.29-0.31-0.31C13.68,2.01,13.67,2,13.66,2c0,0,0,0,0,0
		c-1.27,0-2.54,0-3.81,0c-2.03,0-4.07,0-6.1,0C3.28,2,2.81,2,2.35,2c0,0,0,0,0,0c-0.01,0-0.02,0-0.03,0.01
		C2.15,2.02,2.02,2.15,2.01,2.31c0,0.01,0,0.02-0.01,0.03c0,0,0,0,0,0c0,1.27,0,2.54,0,3.81c0,2.03,0,4.07,0,6.1
		c0,0.46,0,0.93,0,1.39c0,0,0,0,0,0c0,0.01,0,0.02,0.01,0.03c0.02,0.16,0.15,0.29,0.31,0.31c0.01,0,0.02,0,0.03,0.01c0,0,0,0,0,0
		c1.27,0,2.54,0,3.81,0c2.03,0,4.07,0,6.1,0c0.46,0,0.93,0,1.39,0c0,0,0,0,0.01,0c0.01,0,0.02,0,0.02,0
		c0.08-0.01,0.14-0.04,0.19-0.08c0.01-0.01,0.02-0.01,0.02-0.02c0.01-0.01,0.01-0.01,0.02-0.02c0.04-0.05,0.07-0.11,0.08-0.19
		c0-0.01,0-0.02,0.01-0.02c0,0,0,0,0,0c0-1.27,0-2.54,0-3.81c0-2.03,0-4.07,0-6.1C14,3.28,14,2.81,14,2.34C14,2.34,14,2.34,14,2.34z
		 M13.31,6.16c0,2.03,0,4.07,0,6.1c0,0.19,0,0.37,0,0.56c-1.08-1.08-2.16-2.16-3.24-3.24C9.54,9.05,9.02,8.53,8.49,8
		c1.34-1.34,2.68-2.68,4.02-4.02c0.27-0.27,0.53-0.53,0.8-0.8C13.31,4.17,13.31,5.16,13.31,6.16z M6.16,2.69c2.03,0,4.07,0,6.1,0
		c0.19,0,0.37,0,0.56,0c-1.08,1.08-2.16,2.16-3.24,3.24C9.05,6.46,8.53,6.98,8,7.51C6.66,6.17,5.32,4.83,3.98,3.49
		c-0.27-0.27-0.53-0.53-0.8-0.8C4.17,2.69,5.16,2.69,6.16,2.69z M2.69,3.74c0-0.19,0-0.37,0-0.56c1.08,1.08,2.16,2.16,3.24,3.24
		C6.46,6.95,6.98,7.47,7.51,8c-1.34,1.34-2.68,2.68-4.02,4.02c-0.27,0.27-0.53,0.53-0.8,0.8c0-0.99,0-1.98,0-2.97
		C2.69,7.81,2.69,5.77,2.69,3.74z M9.84,13.31c-2.03,0-4.07,0-6.1,0c-0.19,0-0.37,0-0.56,0c1.08-1.08,2.16-2.16,3.24-3.24
		C6.95,9.54,7.47,9.02,8,8.49c1.34,1.34,2.68,2.68,4.02,4.02c0.27,0.27,0.53,0.53,0.8,0.8C11.83,13.31,10.84,13.31,9.84,13.31z"/>
</g>
<g id="_x35_-2-4" display="none">
	<path display="inline" fill="#231F20" d="M2.34,2c-0.01,0-0.02,0-0.03,0.01C2.15,2.02,2.02,2.15,2.01,2.32c0,0.01,0,0.02-0.01,0.03
		c0,0,0,0,0,0c0,1.27,0,2.54,0,3.81c0,2.03,0,4.07,0,6.1c0,0.46,0,0.93,0,1.39c0,0,0,0,0,0.01c0,0.01,0,0.02,0,0.02
		c0.01,0.14,0.09,0.24,0.2,0.28c0,0,0.01,0,0.01,0.01c0,0,0,0,0,0c0.11,0.05,0.23,0.04,0.35-0.05c0.01,0,0.01-0.01,0.02-0.01
		c0,0,0,0,0,0c1.28-1.28,2.55-2.55,3.83-3.83C6.95,9.54,7.47,9.02,8,8.49c1.34,1.34,2.68,2.68,4.02,4.02
		c0.46,0.46,0.92,0.92,1.39,1.39c0,0,0,0,0,0c0.01,0,0.01,0.01,0.02,0.01c0.11,0.1,0.24,0.1,0.35,0.06c0,0,0,0,0.01,0
		c0,0,0.01,0,0.01,0c0.11-0.04,0.19-0.13,0.2-0.28c0-0.01,0-0.02,0.01-0.02c0,0,0,0,0,0c0-1.27,0-2.54,0-3.81c0-2.03,0-4.07,0-6.1
		c0-0.46,0-0.93,0-1.39c0,0,0,0,0,0c0-0.01,0-0.02-0.01-0.03c-0.02-0.16-0.15-0.29-0.31-0.31c-0.01,0-0.02,0-0.03-0.01c0,0,0,0,0,0
		c-1.27,0-2.54,0-3.81,0c-2.03,0-4.07,0-6.1,0C3.28,2,2.81,2,2.34,2C2.34,2,2.34,2,2.34,2z M12.26,2.69c0.19,0,0.37,0,0.56,0
		c-1.08,1.08-2.16,2.16-3.24,3.24C9.05,6.46,8.53,6.98,8,7.51C6.66,6.17,5.32,4.83,3.98,3.49c-0.27-0.27-0.53-0.53-0.8-0.8
		c0.99,0,1.98,0,2.97,0C8.19,2.69,10.23,2.69,12.26,2.69z M3.49,12.02c-0.27,0.27-0.53,0.53-0.8,0.8c0-0.99,0-1.98,0-2.97
		c0-2.03,0-4.07,0-6.1c0-0.19,0-0.37,0-0.56c1.08,1.08,2.16,2.16,3.24,3.24C6.46,6.95,6.98,7.47,7.51,8
		C6.17,9.34,4.83,10.68,3.49,12.02z M13.31,6.16c0,2.03,0,4.07,0,6.1c0,0.19,0,0.37,0,0.56c-1.08-1.08-2.16-2.16-3.24-3.24
		C9.54,9.06,9.02,8.53,8.49,8c1.34-1.34,2.68-2.68,4.02-4.02c0.27-0.27,0.53-0.53,0.8-0.8C13.31,4.17,13.31,5.17,13.31,6.16z"/>
</g>
<g id="_x35_-2-3" display="none">
	<path display="inline" fill="#231F20" d="M2,13.66c0,0.01,0,0.02,0.01,0.03c0.02,0.16,0.15,0.29,0.31,0.31c0.01,0,0.02,0,0.03,0.01
		c0,0,0,0,0,0c1.27,0,2.54,0,3.81,0c2.03,0,4.07,0,6.1,0c0.46,0,0.93,0,1.39,0c0,0,0,0,0.01,0c0.01,0,0.02,0,0.02,0
		c0.14-0.01,0.24-0.09,0.28-0.2c0,0,0-0.01,0.01-0.01c0,0,0,0,0,0c0.05-0.11,0.04-0.23-0.05-0.35c0-0.01-0.01-0.01-0.01-0.02
		c0,0,0,0,0,0c-1.28-1.28-2.55-2.55-3.83-3.83C9.54,9.05,9.02,8.53,8.49,8c1.34-1.34,2.68-2.68,4.02-4.02
		c0.46-0.46,0.92-0.92,1.39-1.39c0,0,0,0,0,0c0-0.01,0.01-0.01,0.01-0.02c0.1-0.11,0.1-0.24,0.06-0.35c0,0,0,0,0-0.01
		c0,0,0-0.01,0-0.01c-0.04-0.11-0.13-0.19-0.28-0.2C13.68,2,13.67,2,13.66,2c0,0,0,0,0,0c-1.27,0-2.54,0-3.81,0
		c-2.03,0-4.07,0-6.1,0C3.28,2,2.81,2,2.35,2c0,0,0,0,0,0c-0.01,0-0.02,0-0.03,0.01C2.15,2.02,2.02,2.15,2.01,2.31
		c0,0.01,0,0.02-0.01,0.03c0,0,0,0,0,0c0,1.27,0,2.54,0,3.81c0,2.03,0,4.07,0,6.1C2,12.72,2,13.19,2,13.66C2,13.66,2,13.66,2,13.66z
		 M2.69,3.74c0-0.19,0-0.37,0-0.56c1.08,1.08,2.16,2.16,3.24,3.24C6.46,6.95,6.98,7.47,7.51,8c-1.34,1.34-2.68,2.68-4.02,4.02
		c-0.27,0.27-0.53,0.53-0.8,0.8c0-0.99,0-1.98,0-2.97C2.69,7.81,2.69,5.77,2.69,3.74z M12.02,12.51c0.27,0.27,0.53,0.53,0.8,0.8
		c-0.99,0-1.98,0-2.97,0c-2.03,0-4.07,0-6.1,0c-0.19,0-0.37,0-0.56,0c1.08-1.08,2.16-2.16,3.24-3.24C6.95,9.54,7.47,9.02,8,8.49
		C9.34,9.83,10.68,11.17,12.02,12.51z M6.16,2.69c2.03,0,4.07,0,6.1,0c0.19,0,0.37,0,0.56,0c-1.08,1.08-2.16,2.16-3.24,3.24
		C9.06,6.46,8.53,6.98,8,7.51C6.66,6.17,5.32,4.83,3.98,3.49c-0.27-0.27-0.53-0.53-0.8-0.8C4.17,2.69,5.17,2.69,6.16,2.69z"/>
</g>
<g id="_x35_-2-2" display="none">
	<path display="inline" fill="#231F20" d="M13.66,14c0.01,0,0.02,0,0.03-0.01c0.16-0.02,0.29-0.15,0.31-0.31
		c0-0.01,0-0.02,0.01-0.03c0,0,0,0,0,0c0-1.27,0-2.54,0-3.81c0-2.03,0-4.07,0-6.1c0-0.46,0-0.93,0-1.39c0,0,0,0,0-0.01
		c0-0.01,0-0.02,0-0.02c-0.01-0.14-0.09-0.24-0.2-0.28c0,0-0.01,0-0.01-0.01c0,0,0,0,0,0c-0.11-0.05-0.23-0.04-0.35,0.05
		c-0.01,0-0.01,0.01-0.02,0.01c0,0,0,0,0,0c-1.28,1.28-2.55,2.55-3.83,3.83C9.05,6.46,8.53,6.98,8,7.51
		C6.66,6.17,5.32,4.83,3.98,3.49C3.52,3.02,3.05,2.56,2.59,2.1c0,0,0,0,0,0c-0.01,0-0.01-0.01-0.02-0.01
		c-0.11-0.1-0.24-0.1-0.35-0.06c0,0,0,0-0.01,0c0,0-0.01,0-0.01,0C2.1,2.08,2.02,2.17,2.01,2.32C2,2.32,2,2.33,2,2.34c0,0,0,0,0,0
		c0,1.27,0,2.54,0,3.81c0,2.03,0,4.07,0,6.1c0,0.46,0,0.93,0,1.39c0,0,0,0,0,0c0,0.01,0,0.02,0.01,0.03
		c0.02,0.16,0.15,0.29,0.31,0.31c0.01,0,0.02,0,0.03,0.01c0,0,0,0,0,0c1.27,0,2.54,0,3.81,0c2.03,0,4.07,0,6.1,0
		C12.72,14,13.19,14,13.66,14C13.66,14,13.66,14,13.66,14z M3.74,13.31c-0.19,0-0.37,0-0.56,0c1.08-1.08,2.16-2.16,3.24-3.24
		C6.95,9.54,7.47,9.02,8,8.49c1.34,1.34,2.68,2.68,4.02,4.02c0.27,0.27,0.53,0.53,0.8,0.8c-0.99,0-1.98,0-2.97,0
		C7.81,13.31,5.77,13.31,3.74,13.31z M12.51,3.98c0.27-0.27,0.53-0.53,0.8-0.8c0,0.99,0,1.98,0,2.97c0,2.03,0,4.07,0,6.1
		c0,0.19,0,0.37,0,0.56c-1.08-1.08-2.16-2.16-3.24-3.24C9.54,9.05,9.02,8.53,8.49,8C9.83,6.66,11.17,5.32,12.51,3.98z M2.69,9.84
		c0-2.03,0-4.07,0-6.1c0-0.19,0-0.37,0-0.56c1.08,1.08,2.16,2.16,3.24,3.24C6.46,6.94,6.98,7.47,7.51,8
		c-1.34,1.34-2.68,2.68-4.02,4.02c-0.27,0.27-0.53,0.53-0.8,0.8C2.69,11.83,2.69,10.83,2.69,9.84z"/>
</g>
<g id="_x35_-2-1" display="none">
	<path display="inline" fill="#231F20" d="M14,2.34c0-0.01,0-0.02-0.01-0.03c-0.02-0.16-0.15-0.29-0.31-0.31
		c-0.01,0-0.02,0-0.03-0.01c0,0,0,0,0,0c-1.27,0-2.54,0-3.81,0c-2.03,0-4.07,0-6.1,0C3.27,2,2.81,2,2.35,2c0,0,0,0-0.01,0
		c-0.01,0-0.02,0-0.02,0C2.17,2.02,2.08,2.1,2.04,2.21c0,0,0,0.01-0.01,0.01c0,0,0,0,0,0C1.98,2.33,1.99,2.46,2.08,2.57
		c0,0.01,0.01,0.01,0.01,0.02c0,0,0,0,0,0c1.28,1.28,2.55,2.55,3.83,3.83C6.46,6.95,6.98,7.47,7.51,8
		c-1.34,1.34-2.68,2.68-4.02,4.02c-0.46,0.46-0.92,0.92-1.39,1.39c0,0,0,0,0,0c0,0.01-0.01,0.01-0.01,0.02
		c-0.1,0.11-0.1,0.24-0.06,0.35c0,0,0,0,0,0.01c0,0,0,0.01,0,0.01c0.04,0.11,0.13,0.19,0.28,0.2c0.01,0,0.02,0,0.02,0.01
		c0,0,0,0,0,0c1.27,0,2.54,0,3.81,0c2.03,0,4.07,0,6.1,0c0.46,0,0.93,0,1.39,0c0,0,0,0,0,0c0.01,0,0.02,0,0.03-0.01
		c0.16-0.02,0.29-0.15,0.31-0.31c0-0.01,0-0.02,0.01-0.03c0,0,0,0,0,0c0-1.27,0-2.54,0-3.81c0-2.03,0-4.07,0-6.1
		C14,3.28,14,2.81,14,2.34C14,2.34,14,2.34,14,2.34z M13.31,12.26c0,0.19,0,0.37,0,0.56c-1.08-1.08-2.16-2.16-3.24-3.24
		C9.54,9.05,9.02,8.53,8.49,8c1.34-1.34,2.68-2.68,4.02-4.02c0.27-0.27,0.53-0.53,0.8-0.8c0,0.99,0,1.98,0,2.97
		C13.31,8.19,13.31,10.23,13.31,12.26z M3.98,3.49c-0.27-0.27-0.53-0.53-0.8-0.8c0.99,0,1.98,0,2.97,0c2.03,0,4.07,0,6.1,0
		c0.19,0,0.37,0,0.56,0c-1.08,1.08-2.16,2.16-3.24,3.24C9.05,6.46,8.53,6.98,8,7.51C6.66,6.17,5.32,4.83,3.98,3.49z M9.84,13.31
		c-2.03,0-4.07,0-6.1,0c-0.19,0-0.37,0-0.56,0c1.08-1.08,2.16-2.16,3.24-3.24C6.94,9.54,7.47,9.02,8,8.49
		c1.34,1.34,2.68,2.68,4.02,4.02c0.27,0.27,0.53,0.53,0.8,0.8C11.83,13.31,10.83,13.31,9.84,13.31z"/>
</g>
<g id="_x35_-1-2" display="none">
	<path display="inline" fill="#231F20" d="M2,2.35c0,1.27,0,2.54,0,3.81c0,2.03,0,4.07,0,6.1c0,0.46,0,0.93,0,1.39c0,0,0,0,0,0
		c0,0.01,0,0.02,0.01,0.03c0.02,0.16,0.15,0.29,0.31,0.31c0.01,0,0.02,0,0.03,0.01c0,0,0,0,0,0c1.27,0,2.54,0,3.81,0
		c2.03,0,4.07,0,6.1,0c0.46,0,0.93,0,1.39,0c0.19,0,0.35-0.16,0.35-0.35c0-1.27,0-2.54,0-3.81c0-2.03,0-4.07,0-6.1
		c0-0.46,0-0.93,0-1.39c0,0,0,0,0-0.01c0-0.01,0-0.02,0-0.02c-0.01-0.08-0.04-0.14-0.08-0.19C13.91,2.12,13.9,2.11,13.9,2.1
		c-0.01-0.01-0.01-0.01-0.02-0.02c-0.05-0.04-0.11-0.07-0.19-0.08C13.67,2,13.67,2,13.66,2c0,0,0,0,0,0c-1.27,0-2.54,0-3.81,0
		c-2.03,0-4.07,0-6.1,0C3.28,2,2.81,2,2.35,2C2.16,2,2,2.16,2,2.35z M2.69,9.84c0-2.03,0-4.07,0-6.1c0-0.35,0-0.7,0-1.05
		c1.15,0,2.31,0,3.46,0c2.03,0,4.07,0,6.1,0c0.19,0,0.37,0,0.56,0c-1.08,1.08-2.16,2.16-3.24,3.24c-2.03,2.03-4.06,4.06-6.09,6.09
		c-0.27,0.27-0.53,0.53-0.8,0.8C2.69,11.83,2.69,10.84,2.69,9.84z M13.31,6.16c0,2.03,0,4.07,0,6.1c0,0.35,0,0.7,0,1.05
		c-1.15,0-2.31,0-3.46,0c-2.03,0-4.07,0-6.1,0c-0.19,0-0.37,0-0.56,0c1.08-1.08,2.16-2.16,3.24-3.24c2.03-2.03,4.06-4.06,6.09-6.09
		c0.27-0.27,0.53-0.53,0.8-0.8C13.31,4.17,13.31,5.16,13.31,6.16z"/>
</g>
<g id="_x35_-1-1" display="none">
	<path display="inline" fill="#231F20" d="M13.65,2c-1.27,0-2.54,0-3.81,0c-2.03,0-4.07,0-6.1,0C3.28,2,2.81,2,2.35,2c0,0,0,0,0,0
		c-0.01,0-0.02,0-0.03,0.01C2.15,2.02,2.02,2.15,2.01,2.31c0,0.01,0,0.02-0.01,0.03c0,0,0,0,0,0c0,1.27,0,2.54,0,3.81
		c0,2.03,0,4.07,0,6.1c0,0.46,0,0.93,0,1.39C2,13.84,2.16,14,2.35,14c1.27,0,2.54,0,3.81,0c2.03,0,4.07,0,6.1,0
		c0.46,0,0.93,0,1.39,0c0,0,0,0,0.01,0c0.01,0,0.02,0,0.02,0c0.08-0.01,0.14-0.04,0.19-0.08c0.01-0.01,0.02-0.01,0.02-0.02
		c0.01-0.01,0.01-0.01,0.02-0.02c0.04-0.05,0.07-0.11,0.08-0.19c0-0.01,0-0.02,0.01-0.02c0,0,0,0,0,0c0-1.27,0-2.54,0-3.81
		c0-2.03,0-4.07,0-6.1c0-0.46,0-0.93,0-1.39C14,2.16,13.84,2,13.65,2z M6.16,2.69c2.03,0,4.07,0,6.1,0c0.35,0,0.7,0,1.05,0
		c0,1.15,0,2.31,0,3.46c0,2.03,0,4.07,0,6.1c0,0.19,0,0.37,0,0.56c-1.08-1.08-2.16-2.16-3.24-3.24C8.04,7.55,6.01,5.52,3.98,3.49
		c-0.27-0.27-0.53-0.53-0.8-0.8C4.17,2.69,5.16,2.69,6.16,2.69z M9.84,13.31c-2.03,0-4.07,0-6.1,0c-0.35,0-0.7,0-1.05,0
		c0-1.15,0-2.31,0-3.46c0-2.03,0-4.07,0-6.1c0-0.19,0-0.37,0-0.56c1.08,1.08,2.16,2.16,3.24,3.24c2.03,2.03,4.06,4.06,6.09,6.09
		c0.27,0.27,0.53,0.53,0.8,0.8C11.83,13.31,10.84,13.31,9.84,13.31z"/>
</g>
<g id="_x34_-3-1" display="none">
	<path display="inline" fill="#231F20" d="M13.65,2c-1.27,0-2.54,0-3.81,0c-2.03,0-4.07,0-6.1,0C3.28,2,2.81,2,2.35,2
		C2.16,2,2,2.16,2,2.35c0,1.27,0,2.54,0,3.81c0,2.03,0,4.07,0,6.1c0,0.46,0,0.93,0,1.39C2,13.84,2.16,14,2.35,14
		c1.27,0,2.54,0,3.81,0c2.03,0,4.07,0,6.1,0c0.46,0,0.93,0,1.39,0c0.09,0,0.17-0.04,0.22-0.08c0.01-0.01,0.02-0.01,0.02-0.02
		c0.01-0.01,0.01-0.01,0.02-0.02c0.05-0.05,0.09-0.13,0.09-0.22c0-1.27,0-2.54,0-3.81c0-2.03,0-4.07,0-6.1c0-0.46,0-0.93,0-1.39
		C14,2.16,13.84,2,13.65,2z M9.84,13.31c-2.03,0-4.07,0-6.1,0c-0.35,0-0.7,0-1.05,0c0-1.15,0-2.31,0-3.46c0-2.03,0-4.07,0-6.1
		c0-0.35,0-0.7,0-1.05c1.15,0,2.31,0,3.46,0c2.03,0,4.07,0,6.1,0c0.35,0,0.7,0,1.05,0c0,1.15,0,2.31,0,3.46c0,2.03,0,4.07,0,6.1
		c0,0.35,0,0.7,0,1.05C12.15,13.31,11,13.31,9.84,13.31z"/>
</g>
<g id="_x34_-2-2" display="none">
	<path display="inline" fill="#231F20" d="M9.58,5.93C9.05,6.46,8.53,6.98,8,7.51C6.66,6.17,5.32,4.83,3.98,3.49
		C3.52,3.03,3.05,2.56,2.59,2.1C2.38,1.89,2,2.05,2,2.35c0,1.27,0,2.54,0,3.81c0,2.03,0,4.07,0,6.1c0,0.46,0,0.93,0,1.39
		c0,0,0,0,0,0.01c0,0.01,0,0.02,0,0.02c0.01,0.14,0.09,0.24,0.2,0.28c0,0,0.01,0,0.01,0.01c0,0,0,0,0,0
		c0.11,0.05,0.23,0.04,0.35-0.05c0.01,0,0.01-0.01,0.02-0.01c0,0,0,0,0,0c1.28-1.28,2.55-2.55,3.83-3.83C6.95,9.54,7.47,9.02,8,8.49
		c1.34,1.34,2.68,2.68,4.02,4.02c0.46,0.46,0.92,0.92,1.39,1.39c0.21,0.21,0.59,0.06,0.59-0.24c0-1.27,0-2.54,0-3.81
		c0-2.03,0-4.07,0-6.1c0-0.46,0-0.93,0-1.39c0-0.3-0.38-0.46-0.59-0.24C12.13,3.38,10.86,4.65,9.58,5.93z M3.49,12.02
		c-0.27,0.27-0.53,0.53-0.8,0.8c0-0.99,0-1.98,0-2.97c0-2.03,0-4.07,0-6.1c0-0.19,0-0.37,0-0.56c1.08,1.08,2.16,2.16,3.24,3.24
		C6.46,6.95,6.98,7.47,7.51,8C6.17,9.34,4.83,10.68,3.49,12.02z M13.31,6.15c0,2.03,0,4.07,0,6.1c0,0.19,0,0.37,0,0.56
		c-1.08-1.08-2.16-2.16-3.24-3.24C9.54,9.05,9.02,8.53,8.49,8c1.34-1.34,2.68-2.68,4.02-4.02c0.27-0.27,0.53-0.53,0.8-0.8
		C13.31,4.17,13.31,5.16,13.31,6.15z"/>
</g>
<g id="_x34_-2-1" display="none">
	<path display="inline" fill="#231F20" d="M10.07,9.58C9.54,9.05,9.02,8.53,8.49,8c1.34-1.34,2.68-2.68,4.02-4.02
		c0.46-0.46,0.92-0.92,1.39-1.39C14.11,2.38,13.95,2,13.65,2c-1.27,0-2.54,0-3.81,0c-2.03,0-4.07,0-6.1,0C3.28,2,2.81,2,2.35,2
		c0,0,0,0-0.01,0c-0.01,0-0.02,0-0.02,0C2.18,2.02,2.08,2.1,2.04,2.21c0,0,0,0.01-0.01,0.01c0,0,0,0,0,0
		C1.98,2.33,1.99,2.46,2.09,2.57c0,0.01,0.01,0.01,0.01,0.02c0,0,0,0,0,0c1.28,1.28,2.55,2.55,3.83,3.83C6.46,6.95,6.98,7.47,7.51,8
		c-1.34,1.34-2.68,2.68-4.02,4.02c-0.46,0.46-0.92,0.92-1.39,1.39C1.89,13.62,2.05,14,2.35,14c1.27,0,2.54,0,3.81,0
		c2.03,0,4.07,0,6.1,0c0.46,0,0.93,0,1.39,0c0.3,0,0.46-0.38,0.24-0.59C12.62,12.13,11.35,10.86,10.07,9.58z M3.98,3.49
		c-0.27-0.27-0.53-0.53-0.8-0.8c0.99,0,1.98,0,2.97,0c2.03,0,4.07,0,6.1,0c0.19,0,0.37,0,0.56,0c-1.08,1.08-2.16,2.16-3.24,3.24
		C9.05,6.46,8.53,6.98,8,7.51C6.66,6.17,5.32,4.83,3.98,3.49z M9.85,13.31c-2.03,0-4.07,0-6.1,0c-0.19,0-0.37,0-0.56,0
		c1.08-1.08,2.16-2.16,3.24-3.24C6.95,9.54,7.47,9.02,8,8.49c1.34,1.34,2.68,2.68,4.02,4.02c0.27,0.27,0.53,0.53,0.8,0.8
		C11.83,13.31,10.84,13.31,9.85,13.31z"/>
</g>
<g id="_x34_-1-4" display="none">
	<path display="inline" fill="#231F20" d="M2.59,13.9c1.28-1.28,2.55-2.55,3.83-3.83C6.95,9.54,7.47,9.02,8,8.49
		c1.34,1.34,2.68,2.68,4.02,4.02c0.46,0.46,0.92,0.92,1.39,1.39c0.21,0.21,0.59,0.06,0.59-0.24c0-1.27,0-2.54,0-3.81
		c0-2.03,0-4.07,0-6.1c0-0.46,0-0.93,0-1.39c0,0,0,0,0-0.01c0-0.01,0-0.02,0-0.02c-0.01-0.08-0.04-0.14-0.08-0.19
		C13.91,2.12,13.9,2.11,13.9,2.1c-0.01-0.01-0.01-0.01-0.02-0.02c-0.05-0.04-0.11-0.07-0.19-0.08C13.67,2,13.67,2,13.66,2
		c0,0,0,0,0,0c-1.27,0-2.54,0-3.81,0c-2.03,0-4.07,0-6.1,0C3.28,2,2.81,2,2.35,2C2.05,2,1.89,2.38,2.1,2.59
		c1.28,1.28,2.55,2.55,3.83,3.83C6.46,6.95,6.98,7.47,7.51,8c-1.34,1.34-2.68,2.68-4.02,4.02c-0.46,0.46-0.92,0.92-1.39,1.39
		C1.79,13.72,2.28,14.21,2.59,13.9z M13.31,6.16c0,2.03,0,4.07,0,6.1c0,0.19,0,0.37,0,0.56c-1.08-1.08-2.16-2.16-3.24-3.24
		C9.54,9.05,9.02,8.53,8.49,8c1.34-1.34,2.68-2.68,4.02-4.02c0.27-0.27,0.53-0.53,0.8-0.8C13.31,4.17,13.31,5.16,13.31,6.16z
		 M3.98,3.49c-0.27-0.27-0.53-0.53-0.8-0.8c0.99,0,1.98,0,2.97,0c2.03,0,4.07,0,6.1,0c0.19,0,0.37,0,0.56,0
		c-1.08,1.08-2.16,2.16-3.24,3.24C9.05,6.46,8.53,6.98,8,7.51C6.66,6.17,5.32,4.83,3.98,3.49z"/>
</g>
<g id="_x34_-1-3" display="none">
	<path display="inline" fill="#231F20" d="M2.1,2.59c1.28,1.28,2.55,2.55,3.83,3.83C6.46,6.95,6.98,7.47,7.51,8
		c-1.34,1.34-2.68,2.68-4.02,4.02c-0.46,0.46-0.92,0.92-1.39,1.39C1.89,13.62,2.05,14,2.35,14c1.27,0,2.54,0,3.81,0
		c2.03,0,4.07,0,6.1,0c0.46,0,0.93,0,1.39,0c0,0,0,0,0.01,0c0.01,0,0.02,0,0.02,0c0.08-0.01,0.14-0.04,0.19-0.08
		c0.01-0.01,0.02-0.01,0.02-0.02c0.01-0.01,0.01-0.01,0.02-0.02c0.04-0.05,0.07-0.11,0.08-0.19c0-0.01,0-0.02,0.01-0.02c0,0,0,0,0,0
		c0-1.27,0-2.54,0-3.81c0-2.03,0-4.07,0-6.1c0-0.46,0-0.93,0-1.39c0-0.3-0.38-0.46-0.59-0.24c-1.28,1.28-2.55,2.55-3.83,3.83
		C9.05,6.46,8.53,6.98,8,7.51C6.66,6.17,5.32,4.83,3.98,3.49C3.52,3.03,3.05,2.56,2.59,2.1C2.28,1.79,1.79,2.28,2.1,2.59z
		 M9.84,13.31c-2.03,0-4.07,0-6.1,0c-0.19,0-0.37,0-0.56,0c1.08-1.08,2.16-2.16,3.24-3.24C6.95,9.54,7.47,9.02,8,8.49
		c1.34,1.34,2.68,2.68,4.02,4.02c0.27,0.27,0.53,0.53,0.8,0.8C11.83,13.31,10.84,13.31,9.84,13.31z M12.51,3.98
		c0.27-0.27,0.53-0.53,0.8-0.8c0,0.99,0,1.98,0,2.97c0,2.03,0,4.07,0,6.1c0,0.19,0,0.37,0,0.56c-1.08-1.08-2.16-2.16-3.24-3.24
		C9.54,9.05,9.02,8.53,8.49,8C9.83,6.66,11.17,5.32,12.51,3.98z"/>
</g>
<g id="_x34_-1-2" display="none">
	<path display="inline" fill="#231F20" d="M13.41,2.1c-1.28,1.28-2.55,2.55-3.83,3.83C9.05,6.46,8.53,6.98,8,7.51
		C6.66,6.17,5.32,4.83,3.98,3.49C3.52,3.03,3.05,2.56,2.59,2.1C2.38,1.89,2,2.05,2,2.35c0,1.27,0,2.54,0,3.81c0,2.03,0,4.07,0,6.1
		c0,0.46,0,0.93,0,1.39c0,0,0,0,0,0.01c0,0.01,0,0.02,0,0.02c0.01,0.08,0.04,0.14,0.08,0.19c0.01,0.01,0.01,0.02,0.02,0.02
		c0.01,0.01,0.01,0.01,0.02,0.02c0.05,0.04,0.11,0.07,0.19,0.08c0.01,0,0.02,0,0.02,0.01c0,0,0,0,0,0c1.27,0,2.54,0,3.81,0
		c2.03,0,4.07,0,6.1,0c0.46,0,0.93,0,1.39,0c0.3,0,0.46-0.38,0.24-0.59c-1.28-1.28-2.55-2.55-3.83-3.83C9.54,9.05,9.02,8.53,8.49,8
		c1.34-1.34,2.68-2.68,4.02-4.02c0.46-0.46,0.92-0.92,1.39-1.39C14.21,2.28,13.72,1.79,13.41,2.1z M2.69,9.84c0-2.03,0-4.07,0-6.1
		c0-0.19,0-0.37,0-0.56c1.08,1.08,2.16,2.16,3.24,3.24C6.46,6.95,6.98,7.47,7.51,8c-1.34,1.34-2.68,2.68-4.02,4.02
		c-0.27,0.27-0.53,0.53-0.8,0.8C2.69,11.83,2.69,10.84,2.69,9.84z M12.02,12.51c0.27,0.27,0.53,0.53,0.8,0.8c-0.99,0-1.98,0-2.97,0
		c-2.03,0-4.07,0-6.1,0c-0.19,0-0.37,0-0.56,0c1.08-1.08,2.16-2.16,3.24-3.24C6.95,9.54,7.47,9.02,8,8.49
		C9.34,9.83,10.68,11.17,12.02,12.51z"/>
</g>
<g id="_x34_-1-1" display="none">
	<path display="inline" fill="#231F20" d="M13.9,13.41c-1.28-1.28-2.55-2.55-3.83-3.83C9.54,9.05,9.02,8.53,8.49,8
		c1.34-1.34,2.68-2.68,4.02-4.02c0.46-0.46,0.92-0.92,1.39-1.39C14.11,2.38,13.95,2,13.65,2c-1.27,0-2.54,0-3.81,0
		c-2.03,0-4.07,0-6.1,0C3.28,2,2.81,2,2.35,2c0,0,0,0-0.01,0c-0.01,0-0.02,0-0.02,0C2.24,2.01,2.17,2.04,2.13,2.09
		C2.12,2.09,2.11,2.1,2.1,2.1C2.1,2.11,2.09,2.12,2.09,2.12C2.04,2.17,2.01,2.24,2.01,2.32C2,2.33,2,2.33,2,2.34c0,0,0,0,0,0
		c0,1.27,0,2.54,0,3.81c0,2.03,0,4.07,0,6.1c0,0.46,0,0.93,0,1.39c0,0.3,0.38,0.46,0.59,0.24c1.28-1.28,2.55-2.55,3.83-3.83
		C6.95,9.54,7.47,9.02,8,8.49c1.34,1.34,2.68,2.68,4.02,4.02c0.46,0.46,0.92,0.92,1.39,1.39C13.72,14.21,14.21,13.72,13.9,13.41z
		 M6.16,2.69c2.03,0,4.07,0,6.1,0c0.19,0,0.37,0,0.56,0c-1.08,1.08-2.16,2.16-3.24,3.24C9.05,6.46,8.53,6.98,8,7.51
		C6.66,6.17,5.32,4.83,3.98,3.49c-0.27-0.27-0.53-0.53-0.8-0.8C4.17,2.69,5.16,2.69,6.16,2.69z M3.49,12.02
		c-0.27,0.27-0.53,0.53-0.8,0.8c0-0.99,0-1.98,0-2.97c0-2.03,0-4.07,0-6.1c0-0.19,0-0.37,0-0.56c1.08,1.08,2.16,2.16,3.24,3.24
		C6.46,6.95,6.98,7.47,7.51,8C6.17,9.34,4.83,10.68,3.49,12.02z"/>
</g>
<g id="_x33_-2-4" display="none">
	<path display="inline" fill="#231F20" d="M13.9,13.41c-1.28-1.28-2.55-2.55-3.83-3.83C9.54,9.05,9.02,8.53,8.49,8
		c1.34-1.34,2.68-2.68,4.02-4.02c0.46-0.46,0.92-0.92,1.39-1.39c0.32-0.32-0.17-0.81-0.49-0.49c-1.28,1.28-2.55,2.55-3.83,3.83
		C9.05,6.46,8.53,6.98,8,7.51C6.66,6.17,5.32,4.83,3.98,3.49C3.52,3.03,3.05,2.56,2.59,2.1C2.28,1.79,1.79,2.28,2.1,2.59
		c1.28,1.28,2.55,2.55,3.83,3.83C6.46,6.95,6.98,7.47,7.51,8c-1.34,1.34-2.68,2.68-4.02,4.02c-0.46,0.46-0.92,0.92-1.39,1.39
		C1.89,13.62,2.05,14,2.35,14c1.27,0,2.54,0,3.81,0c2.03,0,4.07,0,6.1,0c0.46,0,0.93,0,1.39,0C13.95,14,14.11,13.62,13.9,13.41z
		 M6.42,10.07C6.95,9.54,7.47,9.02,8,8.49c1.34,1.34,2.68,2.68,4.02,4.02c0.27,0.27,0.53,0.53,0.8,0.8c-0.99,0-1.98,0-2.97,0
		c-2.03,0-4.07,0-6.1,0c-0.19,0-0.37,0-0.56,0C4.26,12.23,5.34,11.15,6.42,10.07z"/>
</g>
<g id="_x33_-2-3" display="none">
	<path display="inline" fill="#231F20" d="M2.59,13.9c1.28-1.28,2.55-2.55,3.83-3.83C6.95,9.54,7.47,9.02,8,8.49
		c1.34,1.34,2.68,2.68,4.02,4.02c0.46,0.46,0.92,0.92,1.39,1.39c0.32,0.32,0.81-0.17,0.49-0.49c-1.28-1.28-2.55-2.55-3.83-3.83
		C9.54,9.05,9.02,8.53,8.49,8c1.34-1.34,2.68-2.68,4.02-4.02c0.46-0.46,0.92-0.92,1.39-1.39c0.32-0.32-0.17-0.81-0.49-0.49
		c-1.28,1.28-2.55,2.55-3.83,3.83C9.05,6.46,8.53,6.98,8,7.51C6.66,6.17,5.32,4.83,3.98,3.49C3.52,3.03,3.05,2.56,2.59,2.1
		C2.38,1.89,2,2.05,2,2.35c0,1.27,0,2.54,0,3.81c0,2.03,0,4.07,0,6.1c0,0.46,0,0.93,0,1.39C2,13.95,2.38,14.11,2.59,13.9z
		 M5.93,6.42C6.46,6.95,6.98,7.47,7.51,8c-1.34,1.34-2.68,2.68-4.02,4.02c-0.27,0.27-0.53,0.53-0.8,0.8c0-0.99,0-1.98,0-2.97
		c0-2.03,0-4.07,0-6.1c0-0.19,0-0.37,0-0.56C3.77,4.26,4.85,5.34,5.93,6.42z"/>
</g>
<g id="_x33_-2-2" display="none">
	<path display="inline" fill="#231F20" d="M2.1,2.59c1.28,1.28,2.55,2.55,3.83,3.83C6.46,6.95,6.98,7.47,7.51,8
		c-1.34,1.34-2.68,2.68-4.02,4.02c-0.46,0.46-0.92,0.92-1.39,1.39c-0.32,0.32,0.17,0.81,0.49,0.49c1.28-1.28,2.55-2.55,3.83-3.83
		C6.95,9.54,7.47,9.02,8,8.49c1.34,1.34,2.68,2.68,4.02,4.02c0.46,0.46,0.92,0.92,1.39,1.39c0.32,0.32,0.81-0.17,0.49-0.49
		c-1.28-1.28-2.55-2.55-3.83-3.83C9.54,9.05,9.02,8.53,8.49,8c1.34-1.34,2.68-2.68,4.02-4.02c0.46-0.46,0.92-0.92,1.39-1.39
		C14.11,2.38,13.95,2,13.65,2c-1.27,0-2.54,0-3.81,0c-2.03,0-4.07,0-6.1,0C3.28,2,2.81,2,2.35,2C2.05,2,1.89,2.38,2.1,2.59z
		 M9.58,5.93C9.05,6.46,8.53,6.98,8,7.51C6.66,6.17,5.32,4.83,3.98,3.49c-0.27-0.27-0.53-0.53-0.8-0.8c0.99,0,1.98,0,2.97,0
		c2.03,0,4.07,0,6.1,0c0.19,0,0.37,0,0.56,0C11.74,3.77,10.66,4.85,9.58,5.93z"/>
</g>
<g id="_x33_-2-1" display="none">
	<path display="inline" fill="#231F20" d="M13.41,2.1c-1.28,1.28-2.55,2.55-3.83,3.83C9.05,6.46,8.53,6.98,8,7.51
		C6.66,6.17,5.32,4.83,3.98,3.49C3.52,3.03,3.05,2.56,2.59,2.1C2.28,1.79,1.79,2.28,2.1,2.59c1.28,1.28,2.55,2.55,3.83,3.83
		C6.46,6.95,6.98,7.47,7.51,8c-1.34,1.34-2.68,2.68-4.02,4.02c-0.46,0.46-0.92,0.92-1.39,1.39c-0.32,0.32,0.17,0.81,0.49,0.49
		c1.28-1.28,2.55-2.55,3.83-3.83C6.95,9.54,7.47,9.02,8,8.49c1.34,1.34,2.68,2.68,4.02,4.02c0.46,0.46,0.92,0.92,1.39,1.39
		c0.21,0.21,0.59,0.06,0.59-0.24c0-1.27,0-2.54,0-3.81c0-2.03,0-4.07,0-6.1c0-0.46,0-0.93,0-1.39C14,2.05,13.62,1.89,13.41,2.1z
		 M10.07,9.58C9.54,9.05,9.02,8.53,8.49,8c1.34-1.34,2.68-2.68,4.02-4.02c0.27-0.27,0.53-0.53,0.8-0.8c0,0.99,0,1.98,0,2.97
		c0,2.03,0,4.07,0,6.1c0,0.19,0,0.37,0,0.56C12.23,11.74,11.15,10.66,10.07,9.58z"/>
</g>
<g id="_x33_-1-4" display="none">
	<path display="inline" fill="#231F20" d="M14,13.65c0-1.27,0-2.54,0-3.82c0-2.03,0-4.06,0-6.09c0-0.47,0-0.94,0-1.41
		c0,0,0,0,0-0.01c0-0.01,0-0.02,0-0.02c-0.01-0.14-0.09-0.24-0.2-0.28c0,0-0.01,0-0.01-0.01c0,0,0,0,0,0
		c-0.11-0.05-0.23-0.04-0.35,0.05c-0.01,0-0.01,0.01-0.02,0.01c0,0,0,0,0,0c-1.28,1.28-2.55,2.55-3.83,3.83
		c-2.03,2.03-4.06,4.06-6.09,6.09c-0.46,0.46-0.92,0.92-1.39,1.39C1.89,13.62,2.04,14,2.34,14c1.27,0,2.54,0,3.81,0
		c2.04,0,4.07,0,6.11,0c0.46,0,0.93,0,1.39,0C13.84,14,14,13.84,14,13.65z M6.42,10.07c2.03-2.03,4.06-4.06,6.09-6.09
		c0.27-0.27,0.53-0.53,0.8-0.8c0,0.99,0,1.99,0,2.98c0,2.03,0,4.06,0,6.09c0,0.35,0,0.71,0,1.06c-1.15,0-2.31,0-3.46,0
		c-2.04,0-4.07,0-6.11,0c-0.19,0-0.37,0-0.56,0C4.26,12.23,5.34,11.15,6.42,10.07z"/>
</g>
<g id="_x33_-1-3" display="none">
	<path display="inline" fill="#231F20" d="M13.65,2c-1.27,0-2.54,0-3.82,0C7.81,2,5.78,2,3.75,2C3.28,2,2.81,2,2.34,2
		c0,0,0,0-0.01,0c-0.01,0-0.02,0-0.02,0C2.17,2.02,2.08,2.1,2.04,2.21c0,0,0,0.01-0.01,0.01c0,0,0,0,0,0
		C1.98,2.33,1.99,2.46,2.08,2.57c0,0.01,0.01,0.01,0.01,0.02c0,0,0,0,0,0c1.28,1.28,2.55,2.55,3.83,3.83
		c2.03,2.03,4.06,4.06,6.09,6.09c0.46,0.46,0.92,0.92,1.39,1.39c0.21,0.21,0.59,0.06,0.59-0.24c0-1.27,0-2.54,0-3.81
		c0-2.04,0-4.07,0-6.11c0-0.46,0-0.93,0-1.39C14,2.16,13.84,2,13.65,2z M10.07,9.58C8.04,7.55,6.01,5.52,3.98,3.49
		c-0.27-0.27-0.53-0.53-0.8-0.8c0.99,0,1.99,0,2.98,0c2.03,0,4.06,0,6.09,0c0.35,0,0.71,0,1.06,0c0,1.15,0,2.31,0,3.46
		c0,2.04,0,4.07,0,6.11c0,0.19,0,0.37,0,0.56C12.23,11.74,11.15,10.66,10.07,9.58z"/>
</g>
<g id="_x33_-1-2" display="none">
	<path display="inline" fill="#231F20" d="M2.35,14c1.27,0,2.54,0,3.82,0c2.03,0,4.06,0,6.09,0c0.47,0,0.94,0,1.41,0c0,0,0,0,0.01,0
		c0.01,0,0.02,0,0.02,0c0.14-0.01,0.24-0.09,0.28-0.2c0,0,0-0.01,0.01-0.01c0,0,0,0,0,0c0.05-0.11,0.04-0.23-0.05-0.35
		c0-0.01-0.01-0.01-0.01-0.02c0,0,0,0,0,0c-1.28-1.28-2.55-2.55-3.83-3.83C8.04,7.55,6.01,5.52,3.98,3.48
		C3.52,3.02,3.05,2.56,2.59,2.1C2.38,1.89,2,2.04,2,2.34c0,1.27,0,2.54,0,3.81c0,2.04,0,4.07,0,6.11c0,0.46,0,0.93,0,1.39
		C2,13.84,2.16,14,2.35,14z M5.93,6.42c2.03,2.03,4.06,4.06,6.09,6.09c0.27,0.27,0.53,0.53,0.8,0.8c-0.99,0-1.99,0-2.98,0
		c-2.03,0-4.06,0-6.09,0c-0.35,0-0.71,0-1.06,0c0-1.15,0-2.31,0-3.46c0-2.04,0-4.07,0-6.11c0-0.19,0-0.37,0-0.56
		C3.77,4.26,4.85,5.34,5.93,6.42z"/>
</g>
<g id="_x33_-1-1" display="none">
	<path display="inline" fill="#231F20" d="M13.65,2c-1.27,0-2.54,0-3.82,0C7.81,2,5.78,2,3.75,2C3.28,2,2.81,2,2.34,2
		c0,0,0,0-0.01,0c-0.01,0-0.02,0-0.02,0C2.17,2.02,2.08,2.1,2.04,2.21c0,0,0,0.01-0.01,0.01c0,0,0,0,0,0
		C1.98,2.33,1.99,2.46,2.08,2.57c0,0.01,0.01,0.01,0.01,0.02c0,0,0,0,0,0c1.28,1.28,2.55,2.55,3.83,3.83
		c2.03,2.03,4.06,4.06,6.09,6.09c0.46,0.46,0.92,0.92,1.39,1.39c0.21,0.21,0.59,0.06,0.59-0.24c0-1.27,0-2.54,0-3.81
		c0-2.04,0-4.07,0-6.11c0-0.46,0-0.93,0-1.39C14,2.16,13.84,2,13.65,2z M10.07,9.58C8.04,7.55,6.01,5.52,3.98,3.49
		c-0.27-0.27-0.53-0.53-0.8-0.8c0.99,0,1.99,0,2.98,0c2.03,0,4.06,0,6.09,0c0.35,0,0.71,0,1.06,0c0,1.15,0,2.31,0,3.46
		c0,2.04,0,4.07,0,6.11c0,0.19,0,0.37,0,0.56C12.23,11.74,11.15,10.66,10.07,9.58z"/>
</g>
<g id="_x32_-0-1" display="none">
	<g display="inline">
		<g>
			<line fill="#231F20" x1="2.35" y1="2.35" x2="13.65" y2="13.65"/>
			<path fill="#231F20" d="M2.1,2.59c1.28,1.28,2.55,2.55,3.83,3.83c2.03,2.03,4.06,4.06,6.09,6.09c0.46,0.46,0.92,0.92,1.39,1.39
				c0.32,0.32,0.81-0.17,0.49-0.49c-1.28-1.28-2.55-2.55-3.83-3.83C8.04,7.55,6.01,5.52,3.98,3.49C3.52,3.03,3.05,2.56,2.59,2.1
				C2.28,1.79,1.79,2.28,2.1,2.59L2.1,2.59z"/>
		</g>
		<path fill="#231F20" d="M13.41,2.1c-1.28,1.28-2.55,2.55-3.83,3.83c-2.03,2.03-4.06,4.06-6.09,6.09
			c-0.46,0.46-0.92,0.92-1.39,1.39c-0.32,0.32,0.17,0.81,0.49,0.49c1.28-1.28,2.55-2.55,3.83-3.83c2.03-2.03,4.06-4.06,6.09-6.09
			c0.46-0.46,0.92-0.92,1.39-1.39C14.21,2.28,13.72,1.79,13.41,2.1L13.41,2.1z"/>
	</g>
</g>
</svg>
